<?xml version="1.0" encoding="UTF-8"?>
<svg width="81px" height="81px" viewBox="0 0 81 81" version="1.1" xmlns="http://www.w3.org/2000/svg" xmlns:xlink="http://www.w3.org/1999/xlink">
    <!-- Generator: Sketch 42 (36781) - http://www.bohemiancoding.com/sketch -->
    <title>engage</title>
    <desc>Created with Sketch.</desc>
    <defs>
        <circle id="path-1" cx="40.5" cy="40.5" r="40.5"></circle>
        <mask id="mask-2" maskContentUnits="userSpaceOnUse" maskUnits="objectBoundingBox" x="0" y="0" width="81" height="81" fill="white">
            <use xlink:href="#path-1"></use>
        </mask>
    </defs>
    <g id="Page-1" stroke="none" stroke-width="1" fill="none" fill-rule="evenodd">
        <g id="Desktop-HD-Copy-5" transform="translate(-841.000000, -1372.000000)">
            <g id="engage" transform="translate(841.000000, 1372.000000)">
                <g id="Group" transform="translate(41.000000, 42.000000) scale(-1, 1) translate(-41.000000, -42.000000) translate(25.000000, 23.000000)" fill="#0D94C9">
                    <path d="M25.2268936,6.324625 C22.5579574,3.6634375 18.2137872,3.6658125 15.5448511,6.324625 C15.3125106,6.5561875 15.3125106,6.932625 15.5448511,7.1641875 C15.7771915,7.39575 16.1548936,7.39575 16.387234,7.1641875 C18.5938723,4.9673125 22.1802553,4.9649375 24.3845106,7.1641875 C26.588766,9.36225 26.588766,12.936625 24.3845106,15.1335 C24.1521702,15.3650625 24.1521702,15.7415 24.3845106,15.9730625 C24.5012766,16.0894375 24.6537872,16.1464375 24.8062979,16.1464375 C24.9588085,16.1464375 25.1113191,16.08825 25.2280851,15.9730625 C27.8958298,13.3130625 27.8958298,8.984625 25.2268936,6.324625 Z" id="Shape"></path>
                    <path d="M28.2556596,3.306 C26.1526809,1.2100625 23.3586383,0.057 20.3858723,0.057 C17.4131064,0.057 14.6178723,1.21125 12.5172766,3.306 C9.09651064,6.7153125 8.29225532,11.8548125 10.4226383,16.0965625 L9.70774468,16.8090625 C8.94519149,16.636875 7.75012766,16.5026875 6.61106383,16.9575 C3.904,18.194875 1.89157447,20.3169375 0.947914894,22.933 C-0.0553191489,25.7129375 0.200851064,28.9073125 1.66757447,31.9295 C3.07948936,34.8376875 5.3147234,36.8505 7.96459574,37.5950625 C8.72238298,37.8088125 9.49923404,37.9133125 10.2737021,37.9133125 C11.8977021,37.9133125 13.5109787,37.451375 14.9085957,36.5571875 C18.517617,34.2486875 22.3649362,30.1898125 22.500766,30.04375 C23.1334468,29.4131875 23.4706383,28.54275 23.4277447,27.6556875 C23.387234,26.8386875 23.0274043,26.113125 22.4137872,25.6108125 C22.3875745,25.58825 22.3601702,25.5680625 22.3339574,25.547875 C22.8963404,24.4494375 22.7462128,23.0885625 21.9014468,22.1255 C24.2868085,21.7965625 26.530383,20.7135625 28.2568511,18.9940625 C32.5950638,14.668 32.5950638,7.630875 28.2556596,3.306 Z M20.7897872,28.3895625 C20.7528511,28.4299375 16.9794043,32.40925 13.6205957,34.5574375 C12.1300426,35.511 10.3082553,35.7853125 8.60919149,35.3079375 C7.20561702,34.9125 5.23370213,33.827125 3.81225532,30.8951875 C2.6267234,28.4525 2.40510638,25.9100625 3.19029787,23.73575 C3.86944681,21.8511875 5.29804255,20.299125 7.17582979,19.3325 L5.79251064,20.7111875 C5.3266383,21.1755 5.3266383,21.926 5.79251064,22.3903125 C6.02485106,22.621875 6.32987234,22.73825 6.63489362,22.73825 C6.93991489,22.73825 7.24493617,22.621875 7.4772766,22.3903125 L10.9111489,18.9679375 L10.9123404,18.96675 L19.6078298,10.300375 C20.0427234,9.8669375 20.8017021,9.86575 21.2377872,10.300375 C21.4558298,10.5176875 21.5749787,10.80625 21.5749787,11.1138125 C21.5749787,11.4201875 21.4546383,11.70875 21.2377872,11.9260625 L13.8171915,19.323 C13.3513191,19.7873125 13.3513191,20.539 13.8171915,21.002125 C14.2830638,21.4664375 15.0360851,21.4664375 15.5019574,21.002125 L16.6338723,19.874 C16.6851064,19.8371875 16.7446809,19.8158125 16.7911489,19.7706875 C17.1569362,19.4049375 17.7931915,19.4049375 18.1577872,19.7706875 C18.3400851,19.952375 18.4413617,20.194625 18.4413617,20.4523125 C18.4413617,20.7088125 18.3400851,20.9510625 18.1184681,21.1719375 L17.3022979,22.06375 C16.8590638,22.54825 16.893617,23.2999375 17.3797447,23.7416875 C17.6073191,23.9483125 17.8956596,24.051625 18.1828085,24.051625 C18.5057021,24.051625 18.8285957,23.921 19.0633191,23.6645 L19.0728511,23.6538125 C19.075234,23.6514375 19.077617,23.6514375 19.0788085,23.6490625 C19.3516596,23.3759375 19.8020426,23.3735625 20.0784681,23.6490625 C20.3429787,23.9126875 20.3525106,24.33425 20.1106383,24.60975 L18.9918298,25.51225 C18.7297021,25.6796875 18.5045106,25.8720625 18.3245957,26.065625 C17.901617,26.5228125 17.9028085,27.2281875 18.3305532,27.683 C18.7559149,28.139 19.4648511,28.1865 19.9485957,27.794625 L20.3965957,27.433625 C20.5538723,27.352875 20.7373617,27.31725 20.8970213,27.4466875 C20.986383,27.5203125 21.035234,27.6295625 21.042383,27.7720625 C21.0566809,27.9834375 20.9685106,28.21025 20.7897872,28.3895625 Z M20.7671489,19.8514375 C20.6468085,19.187625 20.3322553,18.574875 19.8437447,18.0891875 C19.5971064,17.843375 19.308766,17.6605 19.0049362,17.5096875 L22.9225532,13.6051875 C23.5909787,12.939 23.9579574,12.0543125 23.9579574,11.112625 C23.9579574,10.1709375 23.5897872,9.28625 22.9225532,8.6200625 C21.5892766,7.288875 19.2587234,7.288875 17.9230638,8.6200625 L12.2289362,14.295125 C10.9885957,11.11975 11.7082553,7.469375 14.2020426,4.985125 C15.8546383,3.3380625 18.0493617,2.432 20.3858723,2.432 C22.722383,2.432 24.9194894,3.33925 26.5708936,4.985125 C29.9797447,8.38375 29.9797447,13.915125 26.5708936,17.31375 C25.0195745,18.8586875 22.9511489,19.752875 20.7671489,19.8514375 Z" id="Shape"></path>
                </g>
                <use id="Oval-2-Copy" stroke="#0D94C9" mask="url(#mask-2)" stroke-width="3.42" xlink:href="#path-1"></use>
            </g>
        </g>
    </g>
</svg>