<?xml version="1.0" encoding="UTF-8"?>
<svg width="81px" height="81px" viewBox="0 0 81 81" version="1.1" xmlns="http://www.w3.org/2000/svg" xmlns:xlink="http://www.w3.org/1999/xlink">
    <!-- Generator: Sketch 42 (36781) - http://www.bohemiancoding.com/sketch -->
    <title>money</title>
    <desc>Created with Sketch.</desc>
    <defs>
        <circle id="path-1" cx="40.5" cy="40.5" r="40.5"></circle>
        <mask id="mask-2" maskContentUnits="userSpaceOnUse" maskUnits="objectBoundingBox" x="0" y="0" width="81" height="81" fill="white">
            <use xlink:href="#path-1"></use>
        </mask>
    </defs>
    <g id="Page-1" stroke="none" stroke-width="1" fill="none" fill-rule="evenodd">
        <g id="Desktop-HD-Copy-5" transform="translate(-841.000000, -1506.000000)">
            <g id="money" transform="translate(841.000000, 1506.000000)">
                <g>
                    <use id="Oval-2-Copy-2" stroke="#273444" mask="url(#mask-2)" stroke-width="3.42" xlink:href="#path-1"></use>
                    <g id="Group" transform="translate(40.000000, 41.500000) rotate(-22.000000) translate(-40.000000, -41.500000) translate(20.000000, 26.000000)" fill="#273444">
                        <path d="M4.58511769,17.1592344 L8.88280259,17.1592344 C9.22922813,17.1592344 9.51038508,16.8697143 9.51038508,16.5129842 C9.51038508,16.1562541 9.22922813,15.8667341 8.88280259,15.8667341 L4.58511769,15.8667341 C4.23869215,15.8667341 3.95753519,16.1562541 3.95753519,16.5129842 C3.95753519,16.8697143 4.23869215,17.1592344 4.58511769,17.1592344 Z" id="Shape"></path>
                        <path d="M15.4799497,15.8667341 L11.1822648,15.8667341 C10.8358393,15.8667341 10.5546824,16.1562541 10.5546824,16.5129842 C10.5546824,16.8697143 10.8358393,17.1592344 11.1822648,17.1592344 L15.4799497,17.1592344 C15.8263753,17.1592344 16.1075322,16.8697143 16.1075322,16.5129842 C16.1075322,16.1562541 15.8263753,15.8667341 15.4799497,15.8667341 Z" id="Shape"></path>
                        <path d="M22.0758417,15.8667341 L17.7781568,15.8667341 C17.4317313,15.8667341 17.1505743,16.1562541 17.1505743,16.5129842 C17.1505743,16.8697143 17.4317313,17.1592344 17.7781568,17.1592344 L22.0758417,17.1592344 C22.4222673,17.1592344 22.7034242,16.8697143 22.7034242,16.5129842 C22.7034242,16.1562541 22.4235224,15.8667341 22.0758417,15.8667341 Z" id="Shape"></path>
                        <path d="M29.3005714,16.5129842 C29.3005714,16.1562541 29.0194144,15.8667341 28.6729889,15.8667341 L24.375304,15.8667341 C24.0288785,15.8667341 23.7477215,16.1562541 23.7477215,16.5129842 C23.7477215,16.8697143 24.0288785,17.1592344 24.375304,17.1592344 L28.6729889,17.1592344 C29.0194144,17.1592344 29.3005714,16.8697143 29.3005714,16.5129842 Z" id="Shape"></path>
                        <path d="M13.7578634,19.1703649 L4.58511769,19.1703649 C4.23869215,19.1703649 3.95753519,19.459885 3.95753519,19.8166151 C3.95753519,20.1733452 4.23869215,20.4628652 4.58511769,20.4628652 L13.7578634,20.4628652 C14.1042889,20.4628652 14.3854459,20.1733452 14.3854459,19.8166151 C14.3854459,19.459885 14.1055441,19.1703649 13.7578634,19.1703649 Z" id="Shape"></path>
                        <path d="M19.9269993,4.97224878 C17.6262819,4.97224878 15.7548309,6.89936677 15.7548309,9.26851988 C15.7548309,11.6363805 17.6262819,13.5634985 19.9269993,13.5634985 C22.2277167,13.5634985 24.0979125,11.6363805 24.0979125,9.26851988 C24.0991677,6.89936677 22.2277167,4.97224878 19.9269993,4.97224878 Z M19.9269993,12.2722906 C18.3191329,12.2722906 17.0099959,10.9255053 17.0099959,9.26981238 C17.0099959,7.61411945 18.3178778,6.26604161 19.9269993,6.26604161 C21.5361208,6.26604161 22.8427475,7.61411945 22.8427475,9.26981238 C22.8427475,10.9255053 21.5361208,12.2722906 19.9269993,12.2722906 Z" id="Shape"></path>
                        <path d="M29.3005714,9.26851988 C29.3005714,6.89936677 27.4291204,4.97224878 25.128403,4.97224878 C24.5660891,4.97224878 24.0188371,5.0872813 23.5017092,5.31346886 C23.1828973,5.4517664 23.0335326,5.8317615 23.1690904,6.16005658 C23.3046483,6.48835166 23.6736668,6.6421592 23.9924787,6.50256917 C24.3539662,6.34488413 24.7355363,6.26474911 25.1296581,6.26474911 C26.7375245,6.26474911 28.0466616,7.61282695 28.0466616,9.26851988 C28.0466616,10.9242128 26.7387797,12.2709981 25.1296581,12.2709981 C24.7342812,12.2709981 24.3514559,12.1908631 23.9924787,12.0344706 C23.6749219,11.893588 23.3046483,12.0473956 23.1690904,12.3769832 C23.0335326,12.7052783 23.1828973,13.0852734 23.5017092,13.2235709 C24.0163268,13.4497584 24.5648339,13.5634985 25.128403,13.5634985 C27.4291204,13.564791 29.3005714,11.6363805 29.3005714,9.26851988 Z" id="Shape"></path>
                        <path d="M21.1972263,7.88037452 C21.03531,8.36376964 20.9574897,8.81872976 20.9574897,9.26851988 C20.9574897,9.71830999 21.03531,10.1719776 21.1972263,10.6553727 C21.286343,10.9242128 21.529845,11.0922378 21.7909193,11.0922378 C21.8586982,11.0922378 21.9277323,11.0806053 21.9955112,11.0573403 C22.3231092,10.9410153 22.4975772,10.5739452 22.3846123,10.2366026 C22.2691371,9.88892004 22.2126547,9.57225745 22.2126547,9.26851988 C22.2126547,8.9634898 22.2691371,8.64682722 22.3846123,8.29914463 C22.4975772,7.96180204 22.3231092,7.59473195 21.9955112,7.47840692 C21.6628925,7.36078939 21.3089359,7.54303193 21.1972263,7.88037452 Z" id="Shape"></path>
                        <path d="M4.58511769,14.0313836 L7.05528238,14.0313836 L10.3262423,14.0313836 L12.7951518,14.0313836 C13.1415774,14.0313836 13.4227343,13.7418635 13.4227343,13.3851334 L13.4227343,8.54084219 C13.4227343,8.1841121 13.1415774,7.89459202 12.7951518,7.89459202 L10.3262423,7.89459202 L7.05528238,7.89459202 L4.58511769,7.89459202 C4.23869215,7.89459202 3.95753519,8.1841121 3.95753519,8.54084219 L3.95753519,13.3851334 C3.95753519,13.7418635 4.23869215,14.0313836 4.58511769,14.0313836 Z M5.21270018,11.609238 L6.42769988,11.609238 L6.42769988,12.7388833 L5.21270018,12.7388833 L5.21270018,11.609238 Z M10.95508,12.7388833 L10.95508,11.609238 L12.1688245,11.609238 L12.1688245,12.7388833 L10.95508,12.7388833 Z M12.1688245,10.3167376 L10.95508,10.3167376 L10.95508,9.18709236 L12.1688245,9.18709236 L12.1688245,10.3167376 Z M9.699915,9.18709236 L9.699915,12.7388833 L7.68412003,12.7388833 L7.68412003,9.18709236 L9.699915,9.18709236 Z M6.42769988,9.18709236 L6.42769988,10.3167376 L5.21270018,10.3167376 L5.21270018,9.18709236 L6.42769988,9.18709236 Z" id="Shape"></path>
                        <path d="M4.58511769,6.30740162 L14.5825068,6.30740162 C14.9289323,6.30740162 15.2100893,6.01788154 15.2100893,5.66115145 C15.2100893,5.30442136 14.9289323,5.01490129 14.5825068,5.01490129 L4.58511769,5.01490129 C4.23869215,5.01490129 3.95753519,5.30442136 3.95753519,5.66115145 C3.95753519,6.01788154 4.23869215,6.30740162 4.58511769,6.30740162 Z" id="Shape"></path>
                        <path d="M35.8437465,6.18719909 L33.2217068,6.18719909 L33.2217068,4.87660375 C33.2217068,2.53200815 31.3678281,0.62298516 29.0909588,0.62298516 L4.16965808,0.62298516 C1.8927888,0.62298516 0.0389101145,2.53200815 0.0389101145,4.87660375 L0.0389101145,20.5455853 C0.0389101145,22.8901809 1.8927888,24.7992039 4.16965808,24.7992039 L6.79169773,24.7992039 L6.79169773,26.1097992 C6.79169773,28.4543948 8.64557641,30.3634178 10.9224457,30.3634178 L35.8437465,30.3634178 C38.1206157,30.3634178 39.9744944,28.4543948 39.9744944,26.1097992 L39.9744944,10.4408177 C39.9744944,8.09492958 38.1206157,6.18719909 35.8437465,6.18719909 Z M35.8437465,8.77219975 C36.7374239,8.77219975 37.4641644,9.52055744 37.4641644,10.4408177 L37.4641644,12.1378706 L33.2217068,12.1378706 L33.2217068,8.77219975 L35.8437465,8.77219975 Z M2.54798492,20.5455853 L2.54798492,4.87660375 C2.54798492,3.95634351 3.27472544,3.20798582 4.16840291,3.20798582 L29.0897037,3.20798582 C29.9833811,3.20798582 30.7101217,3.95634351 30.7101217,4.87660375 L30.7101217,20.5455853 C30.7101217,21.4658455 29.9833811,22.2142032 29.0897037,22.2142032 L4.16840291,22.2142032 C3.27472544,22.2142032 2.54798492,21.4658455 2.54798492,20.5455853 Z M35.8437465,27.7784171 L10.9224457,27.7784171 C10.0287682,27.7784171 9.3020277,27.0300594 9.3020277,26.1097992 L9.3020277,24.7992039 L29.0909588,24.7992039 C31.3678281,24.7992039 33.2217068,22.8901809 33.2217068,20.5455853 L33.2217068,16.0153716 L37.4641644,16.0153716 L37.4641644,26.1097992 C37.4641644,27.0300594 36.7374239,27.7784171 35.8437465,27.7784171 Z" id="Shape"></path>
                    </g>
                </g>
            </g>
        </g>
    </g>
</svg>