<?xml version="1.0" encoding="UTF-8"?>
<svg width="15px" height="13px" viewBox="0 0 15 13" version="1.1" xmlns="http://www.w3.org/2000/svg" xmlns:xlink="http://www.w3.org/1999/xlink">
    <!-- Generator: Sketch 42 (36781) - http://www.bohemiancoding.com/sketch -->
    <title>team-twitter</title>
    <desc>Created with Sketch.</desc>
    <defs></defs>
    <g id="Page-1" stroke="none" stroke-width="1" fill="none" fill-rule="evenodd">
        <g id="Theme-Copy" transform="translate(-344.000000, -2512.000000)" fill-rule="nonzero" fill="#464646">
            <g id="Group-3" transform="translate(344.000000, 2511.000000)">
                <g id="team-twitter" transform="translate(0.000000, 1.000000)">
                    <g id="twitter_L">
                        <g id="Page-1">
                            <g id="Artboard-1">
                                <g id="line-icons">
                                    <g id="row-4-line-icons">
                                        <path d="M3.21828484,3.17628831 C5.54409097,4.34468315 7.50966532,4.27727579 7.50966532,4.27727579 C7.50966532,4.27727579 6.76450403,1.69332545 9.06772935,0.547399907 C11.3709547,-0.598525778 12.955905,1.33346787 12.955905,1.33346787 C12.955905,1.33346787 13.3575973,1.22374388 13.6568976,1.11401993 C13.9561979,1.00429598 14.3893955,0.808360319 14.3893955,0.808360319 L13.6796661,2.06893117 L14.7725415,1.9536582 C14.7725415,1.9536582 14.6378419,2.14963291 14.200455,2.5487955 C13.7630681,2.94795805 13.582799,3.15417026 13.582799,3.15417026 C13.582799,3.15417026 13.7390458,6.26446817 12.0924769,8.6591075 C10.4459081,11.0537467 8.31844452,12.490947 5.2279621,12.7934277 C2.13747919,13.0959085 0.124737097,11.8497242 0.124737097,11.8497242 C0.124737097,11.8497242 1.47635806,11.7729674 2.33764016,11.4452798 C3.19892226,11.1175923 4.43763968,10.2544159 4.43763968,10.2544159 C4.43763968,10.2544159 2.67634984,9.71515673 2.04409161,9.10849016 C1.41183387,8.50182359 1.25376919,8.14231749 1.25376919,8.14231749 L2.99247871,8.11984834 C2.99247871,8.11984834 1.16344645,7.15367573 0.644091774,6.38972524 C0.124737097,5.6257748 0.0569951613,4.88429341 0.0569951613,4.88429341 L1.39373081,5.42142626 C1.39373081,5.42142626 0.282801774,3.91812075 0.124737097,2.74972591 C-0.0333270968,1.58133107 0.327962903,0.952195352 0.327962903,0.952195352 C0.327962903,0.952195352 0.892479194,2.00789348 3.21828484,3.17628831 Z" id="twitter_L"></path>
                                    </g>
                                </g>
                            </g>
                        </g>
                    </g>
                </g>
            </g>
        </g>
    </g>
</svg>