<?xml version="1.0" encoding="UTF-8"?>
<svg width="16px" height="13px" viewBox="0 0 16 13" version="1.1" xmlns="http://www.w3.org/2000/svg" xmlns:xlink="http://www.w3.org/1999/xlink">
    <!-- Generator: Sketch 42 (36781) - http://www.bohemiancoding.com/sketch -->
    <title>team-google</title>
    <desc>Created with Sketch.</desc>
    <defs></defs>
    <g id="Page-1" stroke="none" stroke-width="1" fill="none" fill-rule="evenodd">
        <g id="Theme-Copy" transform="translate(-386.000000, -2512.000000)" fill-rule="nonzero" fill="#464646">
            <g id="Group-3" transform="translate(344.000000, 2511.000000)">
                <g id="team-google" transform="translate(42.000000, 1.000000)">
                    <g id="Capa_1">
                        <g id="Group">
                            <path d="M6.53023319,5.7566588 L6.53023319,7.65589786 L10.0162961,7.65589786 C9.49626219,9.30705007 7.9495896,10.5047564 6.12204293,10.5047564 C3.86791409,10.5047564 2.04069179,8.68259574 2.04069179,6.43496771 C2.04069179,4.18724264 3.86797896,2.36521131 6.12204293,2.36521131 C7.25715179,2.36521131 8.28382294,2.82739032 9.02361913,3.57317109 L10.4061593,2.07468771 C9.30199554,0.995817194 7.79009568,0.33034929 6.12204293,0.33034929 C2.74094698,0.330316945 0,3.06347714 0,6.43496771 C0,9.80645828 2.74094698,12.5396832 6.12207537,12.5396832 C9.08382265,12.5396832 11.6768882,10.4422981 12.2441832,7.65593021 L12.2441832,5.75669115 L6.53023319,5.7566588 Z" id="Shape"></path>
                            <polygon id="Shape" points="15.9098814 5.67404874 14.7411351 5.67404874 14.7411351 4.50862277 13.7392784 4.50862277 13.7392784 5.67404874 12.5705322 5.67404874 12.5705322 6.67296219 13.7392784 6.67296219 13.7392784 7.83842051 14.7411351 7.83842051 14.7411351 6.67296219 15.9098814 6.67296219"></polygon>
                        </g>
                    </g>
                </g>
            </g>
        </g>
    </g>
</svg>