<?xml version="1.0" encoding="UTF-8"?>
<svg width="81px" height="81px" viewBox="0 0 81 81" version="1.1" xmlns="http://www.w3.org/2000/svg" xmlns:xlink="http://www.w3.org/1999/xlink">
    <!-- Generator: Sketch 42 (36781) - http://www.bohemiancoding.com/sketch -->
    <title>users</title>
    <desc>Created with Sketch.</desc>
    <defs>
        <circle id="path-1" cx="40.5" cy="40.5" r="40.5"></circle>
        <mask id="mask-2" maskContentUnits="userSpaceOnUse" maskUnits="objectBoundingBox" x="0" y="0" width="81" height="81" fill="white">
            <use xlink:href="#path-1"></use>
        </mask>
    </defs>
    <g id="Page-1" stroke="none" stroke-width="1" fill="none" fill-rule="evenodd">
        <g id="Desktop-HD-Copy-5" transform="translate(-841.000000, -1238.000000)">
            <g id="users" transform="translate(841.000000, 1238.000000)">
                <g id="Group-12" transform="translate(19.000000, 18.000000)" fill="#4258E6">
                    <g id="tyb_paperplane" transform="translate(22.000000, 22.000000) rotate(-8.000000) translate(-22.000000, -22.000000) translate(2.716049, 2.716049)" fill-rule="nonzero">
                        <g id="Layer_1" transform="translate(19.283951, 19.283951) rotate(9.000000) translate(-19.283951, -19.283951) translate(2.716049, 2.716049)">
                            <path d="M31.4304132,0.266190947 L0.876994239,12.6435177 L0.874785185,12.6435177 L0.873680658,12.6435177 L0.871471605,12.6435177 C0.616325926,12.7484477 0.420824691,12.9384263 0.304849383,13.1681679 L0.304849383,13.1681679 L0.303744856,13.1681679 C0.277236214,13.2222897 0.254041152,13.2786206 0.235264198,13.3371605 C0.164574486,13.5657975 0.165679012,13.8176296 0.257354733,14.0562074 L0.258459259,14.0562074 C0.258459259,14.0562074 0.258459259,14.0562074 0.258459259,14.0573119 C0.262877366,14.0672527 0.266190947,14.0771934 0.270609053,14.0860296 C0.270609053,14.0860296 0.270609053,14.0860296 0.270609053,14.0871342 C0.366702881,14.3179802 0.531277366,14.5002272 0.732301235,14.6162025 L11.8405267,21.2952757 L18.5162864,32.4035012 C18.6311572,32.6012115 18.808986,32.763577 19.0343095,32.8596708 C19.0519819,32.8674025 19.0696543,32.8751342 19.0884313,32.8817613 C19.2132428,32.9281514 19.3413679,32.950242 19.469493,32.950242 C19.5799457,32.950242 19.6881893,32.9336741 19.7920148,32.9016428 C19.8560774,32.8817613 19.9168263,32.8563572 19.9764708,32.826535 C20.1995852,32.7116642 20.3851457,32.5194765 20.4900757,32.268749 C20.4889712,32.2621218 20.4911802,32.2654354 20.4911802,32.2654354 C20.4911802,32.2654354 20.4922848,32.2643309 20.4922848,32.2632263 C20.4922848,32.2621218 20.4933893,32.2610173 20.4933893,32.2610173 L32.868507,1.7053893 C32.9226288,1.57063704 32.9491374,1.43036214 32.9491374,1.29119177 C32.9491374,1.00291029 32.8364757,0.72015144 32.6255111,0.509186831 C32.310721,0.194396708 31.836879,0.100511934 31.4304132,0.266190947 Z M3.7576,13.8596016 L28.5299259,3.8238716 L12.9616214,19.3921761 L3.7576,13.8596016 Z M19.2750963,29.379307 L13.7425218,20.1730765 L29.3097218,4.60587654 L19.2750963,29.379307 Z" id="Shape"></path>
                        </g>
                    </g>
                    <rect id="Rectangle-7" transform="translate(3.733931, 29.633738) rotate(-43.000000) translate(-3.733931, -29.633738) " x="-0.611748213" y="28.818923" width="8.69135802" height="1.62962963" rx="0.814814815"></rect>
                    <rect id="Rectangle-7-Copy" transform="translate(10.252449, 28.547318) rotate(-43.000000) translate(-10.252449, -28.547318) " x="5.90677031" y="27.7325033" width="8.69135802" height="1.62962963" rx="0.814814815"></rect>
                    <rect id="Rectangle-7-Copy-3" transform="translate(6.449980, 36.695466) rotate(-43.000000) translate(-6.449980, -36.695466) " x="2.10430117" y="35.8806514" width="8.69135802" height="1.62962963" rx="0.814814815"></rect>
                    <rect id="Rectangle-7-Copy-2" transform="translate(13.511709, 35.609047) rotate(-43.000000) translate(-13.511709, -35.609047) " x="9.16602956" y="34.7942317" width="8.69135802" height="1.62962963" rx="0.814814815"></rect>
                </g>
                <use id="Oval-2" stroke="#3E51E0" mask="url(#mask-2)" stroke-width="3.42" xlink:href="#path-1"></use>
            </g>
        </g>
    </g>
</svg>